3.0Hz3min_grf.mot
version=1
nRows=10
nColumns 19
inDegrees=yes
endheader
time	1_ground_force_vx	1_ground_force_vy	1_ground_force_vz	1_ground_force_px	1_ground_force_py	1_ground_force_pz	1_ground_torque_x	1_ground_torque_y	1_ground_torque_z	2_ground_force_vx	2_ground_force_vy	2_ground_force_vz	2_ground_force_px	2_ground_force_py	2_ground_force_pz	2_ground_torque_x	2_ground_torque_y	2_ground_torque_z
            0.005000	           -0.737319	          438.331739	          -22.835786	           -0.233435	            0.006267	           -0.415566	           -0.000896	            0.532759	           -0.027755	           13.439446	          458.334367	           19.930964	           -0.238241	            0.005653	           -0.705955	           -0.116800	           -3.983301	           -0.173216
            0.005500	           -0.917487	          430.757399	          -22.134100	           -0.233313	            0.006267	           -0.415699	           -0.000573	            0.269162	           -0.013831	           13.130791	          452.992752	           19.958977	           -0.238313	            0.005654	           -0.706307	           -0.113322	           -3.909455	           -0.172252
            0.006000	           -0.870427	          424.087548	          -22.162814	           -0.233083	            0.006267	           -0.415615	           -0.000575	            0.280310	           -0.014649	           13.012818	          446.731323	           19.889769	           -0.238442	            0.005654	           -0.706454	           -0.112253	           -3.853661	           -0.171576
            0.006500	           -0.272064	          417.776232	          -21.686932	           -0.233299	            0.006266	           -0.415336	           -0.000339	            0.520016	           -0.026994	           12.758866	          439.181071	           19.628308	           -0.238337	            0.005653	           -0.705973	           -0.110469	           -3.802535	           -0.169947
            0.007000	            0.050674	          410.204349	          -21.536769	           -0.233189	            0.006266	           -0.415391	            0.000089	            0.716872	           -0.037638	           12.547254	          432.918863	           19.699924	           -0.238210	            0.005654	           -0.706245	           -0.107262	           -3.700885	           -0.168408
            0.007500	            0.098613	          403.713221	          -21.197862	           -0.232758	            0.006267	           -0.415559	            0.000181	            0.742193	           -0.038970	           12.287402	          427.025269	           19.632090	           -0.238159	            0.005655	           -0.706417	           -0.105357	           -3.661484	           -0.168333
            0.008000	            0.192589	          397.401944	          -20.766584	           -0.233086	            0.006265	           -0.415223	            0.000299	            0.616579	           -0.032220	           12.493206	          421.871436	           19.144331	           -0.238277	            0.005654	           -0.706386	           -0.109689	           -3.703989	           -0.168085
            0.008500	            0.195547	          390.548899	          -20.108118	           -0.232742	            0.006265	           -0.415075	            0.000143	            0.285707	           -0.014710	           12.282882	          415.241281	           19.120777	           -0.238288	            0.005654	           -0.706381	           -0.106174	           -3.589369	           -0.165281
            0.009000	            0.380397	          383.698445	          -20.046234	           -0.232686	            0.006265	           -0.415035	            0.000110	            0.110470	           -0.005771	           12.118039	          408.979911	           19.004661	           -0.238245	            0.005654	           -0.706311	           -0.104515	           -3.527331	           -0.163910
            0.009500	            0.382412	          377.027270	          -19.753842	           -0.232719	            0.006265	           -0.415041	            0.000132	            0.129923	           -0.006807	           12.093224	          402.902018	           19.217638	           -0.238087	            0.005655	           -0.706261	           -0.106808	           -3.558439	           -0.169731
